<mxfile host="app.diagrams.net" agent="Mozilla/5.0 (Windows NT 10.0; Win64; x64) AppleWebKit/537.36 (KHTML, like Gecko) Chrome/137.0.0.0 Safari/537.36" version="26.2.14">
  <diagram id="C5RBs43oDa-KdzZeNtuy" name="ArizaBildirim">
    <mxGraphModel dx="1004" dy="1109" grid="1" gridSize="10" guides="1" tooltips="1" connect="1" arrows="1" fold="1" page="1" pageScale="1" pageWidth="827" pageHeight="1169" math="0" shadow="0">
      <root>
        <mxCell id="WIyWlLk6GJQsqaUBKTNV-0" />
        <mxCell id="WIyWlLk6GJQsqaUBKTNV-1" parent="WIyWlLk6GJQsqaUBKTNV-0" />
        <mxCell id="mXjN4IkqHy-hlbbNyOY9-0" value="Başlangıç" style="rounded=1;whiteSpace=wrap;html=1;" vertex="1" parent="WIyWlLk6GJQsqaUBKTNV-1">
          <mxGeometry x="70" y="110" width="180" height="60" as="geometry" />
        </mxCell>
        <mxCell id="mXjN4IkqHy-hlbbNyOY9-1" value="Cihaz Seçimi" style="rounded=1;whiteSpace=wrap;html=1;" vertex="1" parent="WIyWlLk6GJQsqaUBKTNV-1">
          <mxGeometry x="290" y="110" width="180" height="60" as="geometry" />
        </mxCell>
        <mxCell id="mXjN4IkqHy-hlbbNyOY9-2" value="Cihaz ID Seçimi" style="rounded=1;whiteSpace=wrap;html=1;" vertex="1" parent="WIyWlLk6GJQsqaUBKTNV-1">
          <mxGeometry x="510" y="110" width="180" height="60" as="geometry" />
        </mxCell>
        <mxCell id="mXjN4IkqHy-hlbbNyOY9-3" value="Sorun Seçimi" style="rounded=1;whiteSpace=wrap;html=1;" vertex="1" parent="WIyWlLk6GJQsqaUBKTNV-1">
          <mxGeometry x="760" y="110" width="180" height="60" as="geometry" />
        </mxCell>
        <mxCell id="mXjN4IkqHy-hlbbNyOY9-4" value="Öncelik Seçimi" style="rounded=1;whiteSpace=wrap;html=1;" vertex="1" parent="WIyWlLk6GJQsqaUBKTNV-1">
          <mxGeometry x="1040" y="110" width="180" height="60" as="geometry" />
        </mxCell>
        <mxCell id="mXjN4IkqHy-hlbbNyOY9-5" value="Halledilebilir (2 saat)" style="rounded=1;whiteSpace=wrap;html=1;" vertex="1" parent="WIyWlLk6GJQsqaUBKTNV-1">
          <mxGeometry x="720" y="270" width="180" height="60" as="geometry" />
        </mxCell>
        <mxCell id="mXjN4IkqHy-hlbbNyOY9-6" value="Normal (1 saat)" style="rounded=1;whiteSpace=wrap;html=1;" vertex="1" parent="WIyWlLk6GJQsqaUBKTNV-1">
          <mxGeometry x="990" y="270" width="180" height="60" as="geometry" />
        </mxCell>
        <mxCell id="mXjN4IkqHy-hlbbNyOY9-7" value="Acil (3 dakika)" style="rounded=1;whiteSpace=wrap;html=1;" vertex="1" parent="WIyWlLk6GJQsqaUBKTNV-1">
          <mxGeometry x="450" y="270" width="180" height="60" as="geometry" />
        </mxCell>
        <mxCell id="mXjN4IkqHy-hlbbNyOY9-8" value="IT İşaretledi: Çözüldü" style="rounded=1;whiteSpace=wrap;html=1;" vertex="1" parent="WIyWlLk6GJQsqaUBKTNV-1">
          <mxGeometry x="540" y="430" width="180" height="60" as="geometry" />
        </mxCell>
        <mxCell id="mXjN4IkqHy-hlbbNyOY9-9" value="Bitiş" style="rounded=1;whiteSpace=wrap;html=1;" vertex="1" parent="WIyWlLk6GJQsqaUBKTNV-1">
          <mxGeometry x="180" y="270" width="180" height="60" as="geometry" />
        </mxCell>
        <mxCell id="mXjN4IkqHy-hlbbNyOY9-10" style="endArrow=block;" edge="1" parent="WIyWlLk6GJQsqaUBKTNV-1" source="mXjN4IkqHy-hlbbNyOY9-0" target="mXjN4IkqHy-hlbbNyOY9-1">
          <mxGeometry relative="1" as="geometry" />
        </mxCell>
        <mxCell id="mXjN4IkqHy-hlbbNyOY9-11" style="endArrow=block;" edge="1" parent="WIyWlLk6GJQsqaUBKTNV-1" source="mXjN4IkqHy-hlbbNyOY9-1" target="mXjN4IkqHy-hlbbNyOY9-2">
          <mxGeometry relative="1" as="geometry" />
        </mxCell>
        <mxCell id="mXjN4IkqHy-hlbbNyOY9-12" style="endArrow=block;" edge="1" parent="WIyWlLk6GJQsqaUBKTNV-1" source="mXjN4IkqHy-hlbbNyOY9-2" target="mXjN4IkqHy-hlbbNyOY9-3">
          <mxGeometry relative="1" as="geometry" />
        </mxCell>
        <mxCell id="mXjN4IkqHy-hlbbNyOY9-13" style="endArrow=block;" edge="1" parent="WIyWlLk6GJQsqaUBKTNV-1" source="mXjN4IkqHy-hlbbNyOY9-3" target="mXjN4IkqHy-hlbbNyOY9-4">
          <mxGeometry relative="1" as="geometry" />
        </mxCell>
        <mxCell id="mXjN4IkqHy-hlbbNyOY9-14" style="endArrow=block;" edge="1" parent="WIyWlLk6GJQsqaUBKTNV-1" source="mXjN4IkqHy-hlbbNyOY9-4" target="mXjN4IkqHy-hlbbNyOY9-5">
          <mxGeometry relative="1" as="geometry" />
        </mxCell>
        <mxCell id="mXjN4IkqHy-hlbbNyOY9-15" style="endArrow=block;" edge="1" parent="WIyWlLk6GJQsqaUBKTNV-1" source="mXjN4IkqHy-hlbbNyOY9-4" target="mXjN4IkqHy-hlbbNyOY9-6">
          <mxGeometry relative="1" as="geometry" />
        </mxCell>
        <mxCell id="mXjN4IkqHy-hlbbNyOY9-16" style="endArrow=block;" edge="1" parent="WIyWlLk6GJQsqaUBKTNV-1" source="mXjN4IkqHy-hlbbNyOY9-4" target="mXjN4IkqHy-hlbbNyOY9-7">
          <mxGeometry relative="1" as="geometry" />
        </mxCell>
        <mxCell id="mXjN4IkqHy-hlbbNyOY9-17" style="endArrow=block;" edge="1" parent="WIyWlLk6GJQsqaUBKTNV-1" source="mXjN4IkqHy-hlbbNyOY9-5" target="mXjN4IkqHy-hlbbNyOY9-8">
          <mxGeometry relative="1" as="geometry" />
        </mxCell>
        <mxCell id="mXjN4IkqHy-hlbbNyOY9-18" style="endArrow=block;" edge="1" parent="WIyWlLk6GJQsqaUBKTNV-1" source="mXjN4IkqHy-hlbbNyOY9-6" target="mXjN4IkqHy-hlbbNyOY9-8">
          <mxGeometry relative="1" as="geometry" />
        </mxCell>
        <mxCell id="mXjN4IkqHy-hlbbNyOY9-19" style="endArrow=block;" edge="1" parent="WIyWlLk6GJQsqaUBKTNV-1" source="mXjN4IkqHy-hlbbNyOY9-7" target="mXjN4IkqHy-hlbbNyOY9-8">
          <mxGeometry relative="1" as="geometry" />
        </mxCell>
        <mxCell id="mXjN4IkqHy-hlbbNyOY9-20" style="endArrow=block;" edge="1" parent="WIyWlLk6GJQsqaUBKTNV-1" source="mXjN4IkqHy-hlbbNyOY9-8" target="mXjN4IkqHy-hlbbNyOY9-9">
          <mxGeometry relative="1" as="geometry" />
        </mxCell>
      </root>
    </mxGraphModel>
  </diagram>
</mxfile>
